<?xml version="1.0" encoding="UTF-8"?><svg id="Layer_1" xmlns="http://www.w3.org/2000/svg" width="64" height="64" viewBox="0 0 64 64"><g fill="#9A79F5"><path d="M3.13,64c-.05-.06-.1-.13-.16-.16C.92,62.72,0,60.98,0,58.67,.01,42.5,0,26.33,0,10.17c0-3.54,2.23-5.78,5.77-5.78,1.87,0,3.75,0,5.62,0,.23,0,.45,0,.71,0,.12-1.72,.82-3.09,2.22-4.03,.3-.2,.72-.34,1.09-.34,6-.02,12-.02,18,0,.35,0,.75,.12,1.03,.32,1.4,.95,2.14,2.29,2.23,4.06,.25,0,.47,0,.69,0,1.94,0,3.87,0,5.81,0,3.31,0,5.6,2.25,5.61,5.56,.01,16.29,0,32.58,.01,48.87,0,2.4-1.14,4.05-3.17,5.18H3.13ZM12.13,7.11c-2.45,0-4.82-.04-7.19,.03-.5,.02-1.05,.38-1.47,.72-.67,.55-.82,1.36-.82,2.2,0,5.85,0,11.71,0,17.56,0,10.37,0,20.75,0,31.12,0,1.85,1.09,2.99,2.86,2.99,12.58,0,25.16,0,37.73,0,1.75,0,2.87-1.11,2.87-2.84,0-16.33,0-32.66,0-48.99,0-1.69-1.07-2.81-2.74-2.83-2.1-.03-4.21,0-6.31,0-.12,0-.24,.04-.42,.07,0,.74,0,1.47,0,2.19,0,1.37-.37,1.73-1.75,1.74-2.79,0-5.58,0-8.37,0-4.25,0-8.5,0-12.74,0-1.22,0-1.65-.43-1.65-1.59,0-.77,0-1.54,0-2.37Zm21.86,1.26c0-1.4,.05-2.73-.01-4.06-.05-1.16-1.01-2.04-2.21-2.04-4.91-.02-9.82-.02-14.74,0-1.03,0-2.03,.69-2.11,1.62-.12,1.48-.03,2.97-.03,4.48h19.1Z"/><path d="M63.99,45.5c-.12,.19-.26,.37-.35,.56-1.38,2.82-2.75,5.65-4.12,8.47-.1,.21-.19,.42-.32,.61-.48,.71-1.32,.8-1.92,.19-.21-.22-.38-.49-.52-.77-1.44-2.95-2.89-5.9-4.3-8.87-.2-.42-.31-.91-.31-1.37-.02-11.6-.01-23.21-.01-34.81,0-1.96,1.15-3.11,3.1-3.11,1.75,0,3.5,.05,5.25-.02,1.73-.07,2.93,.58,3.52,2.25V45.5Zm-2.69-2.19V16.98h-6.6v26.33h6.6Zm-.1-29.22c0-1.63,.01-3.2-.02-4.78,0-.13-.26-.37-.41-.37-1.91-.03-3.82-.03-5.73,0-.18,0-.5,.29-.5,.45-.04,1.55-.02,3.1-.02,4.69h6.68Zm-5.72,32.06l2.52,5.17,2.52-5.17h-5.04Z"/><path d="M24.44,28.52c-4.48,0-8.95,0-13.43,0-1.07,0-1.58-.49-1.52-1.43,.04-.67,.46-1.12,1.13-1.2,.1-.01,.21-.01,.31-.01,8.97,0,17.95,0,26.92,0,.94,0,1.48,.49,1.48,1.31,0,.8-.52,1.32-1.4,1.33-2.25,.01-4.5,0-6.74,0-2.25,0-4.5,0-6.75,0Z"/><path d="M24.37,33.87c4.5,0,8.99,0,13.49,0,1.1,0,1.69,.77,1.4,1.76-.18,.6-.61,.89-1.4,.89-3.02,0-6.04,0-9.06,0-5.91,0-11.82,0-17.74,0-.99,0-1.5-.37-1.57-1.14-.09-.91,.41-1.49,1.32-1.51,.96-.02,1.92,0,2.87,0,3.56,0,7.12,0,10.68,0Z"/><path d="M24.37,44.66c-4.46,0-8.91,0-13.37,0-.99,0-1.49-.43-1.51-1.26-.03-.82,.45-1.35,1.27-1.38,.67-.03,1.33,0,2,0,8.33,0,16.65,0,24.98,0,1.18,0,1.79,.68,1.53,1.7-.14,.55-.49,.86-1.04,.93-.23,.03-.46,.02-.69,.02-4.39,0-8.79,0-13.18,0Z"/><path d="M19.8,52.66c-2.96,0-5.91,0-8.87,0-.94,0-1.42-.45-1.45-1.26-.03-.91,.49-1.39,1.52-1.39,4.87,0,9.74,0,14.61,0,1,0,2,0,3,0,1,0,1.51,.45,1.51,1.33,0,.86-.51,1.32-1.52,1.32-2.93,0-5.87,0-8.8,0Z"/></g></svg>