<svg xmlns="http://www.w3.org/2000/svg" viewBox="0 0 48 48"><path id="Path_468" fill="#9A79F5" d="M43.77,29.23c-1.37-1.36-2.13-3.21-2.13-5.14v-5.98C41.64,8.36,33.74,.46,23.99,.46S6.35,8.36,6.35,18.11v5.98c0,1.93-.76,3.78-2.13,5.14-2.39,2.39-2.39,6.27,0,8.66,1.15,1.15,2.7,1.79,4.33,1.79h5.84c1.08,5.31,6.25,8.74,11.56,7.66,3.86-.78,6.88-3.8,7.66-7.66h5.84c3.38,0,6.12-2.74,6.12-6.12,0-1.62-.64-3.18-1.79-4.33h0Zm-19.77,14.37c-2.48,0-4.69-1.58-5.52-3.92h11.04c-.83,2.34-3.04,3.91-5.52,3.92Zm15.45-7.85H8.55c-1.21,0-2.2-.98-2.2-2.2,0-.58,.23-1.14,.64-1.55,2.1-2.09,3.28-4.94,3.28-7.91v-5.98c.15-7.58,6.41-13.61,13.99-13.46,7.37,.14,13.32,6.09,13.46,13.46v5.98c0,2.97,1.17,5.82,3.28,7.91,.86,.86,.85,2.25,0,3.11-.41,.41-.96,.64-1.54,.64Z"/></svg>