<?xml version="1.0" encoding="UTF-8"?><svg id="Layer_1" xmlns="http://www.w3.org/2000/svg" width="64" height="64" viewBox="0 0 64 64"><g fill="#ffffff"><path d="M0,34.02c0-1.33,0-2.67,0-4,.04-.2,.08-.4,.11-.61,.23-1.52,.35-3.07,.71-4.55C3.25,14.97,9.06,7.72,18.16,3.2,24.19,.21,30.61-.65,37.24,.48c8.3,1.41,15.07,5.51,20.17,12.19,5.34,7,7.39,14.95,6.26,23.67-.83,6.43-3.48,12.08-7.8,16.91-4.92,5.51-11.04,8.94-18.32,10.26-1.18,.21-2.38,.33-3.57,.5h-4c-.78-.1-1.56-.18-2.34-.29-6.34-.91-11.95-3.44-16.75-7.69C5.31,51.08,1.83,44.93,.5,37.59c-.21-1.18-.33-2.38-.5-3.57ZM31.99,4.03c-15.41,0-27.96,12.54-27.99,27.95-.03,15.42,12.56,28.02,27.99,28.01,15.41,0,27.96-12.54,27.99-27.95,.03-15.42-12.56-28.01-27.99-28.01Z"/><path d="M31.29,51.44c-6.56-.24-12.18-3.27-16.01-9.45-.57-.92-.54-1.79,.04-2.49,.89-1.08,2.51-.97,3.28,.28,1.03,1.69,2.28,3.17,3.83,4.4,7.04,5.6,17.81,3.76,22.59-3.86,.14-.23,.28-.46,.44-.68,.64-.9,1.79-1.14,2.71-.57,.9,.56,1.26,1.75,.66,2.67-.85,1.28-1.71,2.58-2.76,3.69-3.82,4.03-8.59,5.93-14.77,6Z"/><path d="M14.84,24.17c-.01-2.23,1.75-4.02,3.97-4.02,2.21,0,4.02,1.8,4.02,4,0,2.17-1.79,3.98-3.96,4-2.22,.02-4.02-1.76-4.03-3.97Z"/><path d="M49.13,24.13c0,2.22-1.78,4.01-3.99,4.01-2.19,0-4.02-1.84-4-4.02,.02-2.18,1.81-3.96,3.98-3.97,2.23,0,4,1.76,4.01,3.99Z"/></g></svg>