<svg id="Layer_1" data-name="Layer 1" xmlns="http://www.w3.org/2000/svg" width="64" height="64" viewBox="0 0 64 64"><path fill="#9A79F5" d="M.26,49.16a6,6,0,0,1,2.46-4C3,45,4.46,44.1,5.33,44.67c.7.46.7,1.66.63,2.42-.1,1.31-.66,2.58-.79,3.89a3.11,3.11,0,0,0,2.41,3.49,8.85,8.85,0,0,0,4.54.46,11,11,0,0,0,4.6-2,19,19,0,0,0,3.9-3.55,41.12,41.12,0,0,0,5-7,62.1,62.1,0,0,0,3.46-7.29c1.5-3.51,2.46-5.95,4.66-11.52,2.94-7.46,3.39-8.24,4.17-9.89,2.39-5,6-8.76,11.67-10.06a12.92,12.92,0,0,1,7.51.48,10.4,10.4,0,0,1,5,3.63A10,10,0,0,1,64,13.6a7.72,7.72,0,0,1-1.19,4.53,3,3,0,0,1-1.92,1.47,2.12,2.12,0,0,1-1.17-.21,2.26,2.26,0,0,1-1.35-2.95,9.64,9.64,0,0,0,0-4c-.48-2.05-3.24-3.49-5.42-3.79-3.52-.48-6.24,1.9-7.51,3a13.78,13.78,0,0,0-3.7,5.08c-2.1,5.21-4,10.49-6,15.73-2.91,7.6-6.11,15-11.52,21.27-2.61,3-5.68,5.58-9.56,6.66A14,14,0,0,1,5,59a9.24,9.24,0,0,1-3.76-3.39A9.15,9.15,0,0,1,.26,49.16Z"/></svg>