<?xml version="1.0" encoding="UTF-8"?><svg id="Layer_1" xmlns="http://www.w3.org/2000/svg" width="64" height="64" viewBox="0 0 64 64"><g fill="#ffffff"><path d="M31.63,63.91c-.19-.12-.36-.26-.56-.35-9.36-4.52-18.72-9.04-28.09-13.54-.7-.34-.97-.77-.97-1.54,.02-11.04,.02-22.07,0-33.11,0-.78,.28-1.2,.98-1.54C12.39,9.3,21.79,4.76,31.18,.21c.58-.28,1.06-.28,1.64,0,9.41,4.56,18.83,9.11,28.26,13.64,.68,.33,.92,.76,.92,1.51-.02,11.04-.02,22.07,0,33.11,0,.78-.27,1.21-.97,1.55-9.37,4.5-18.73,9.02-28.09,13.54-.2,.1-.38,.23-.56,.35h-.75ZM5.14,14.88c.28,.14,.46,.24,.64,.33,5.84,2.82,11.68,5.64,17.52,8.47,.69,.33,1.39,.66,2.07,1.01,.51,.27,.68,.8,.44,1.27-.22,.44-.72,.61-1.24,.41-.19-.07-.38-.18-.56-.27-6.48-3.13-12.96-6.26-19.44-9.38-.21-.1-.42-.19-.66-.29-.02,.13-.03,.18-.03,.22,0,10.43,0,20.87-.01,31.3,0,.37,.17,.5,.45,.63,8.75,4.22,17.49,8.44,26.24,12.66,.14,.07,.29,.1,.5,.18v-.88c0-9.97-.01-19.95,.02-29.92,0-.86-.22-1.35-1.04-1.6-.41-.13-.79-.37-1.18-.56-.71-.34-.96-.83-.71-1.37,.24-.54,.79-.66,1.5-.33,.79,.36,1.58,1.01,2.37,1.01,.79,0,1.58-.65,2.37-1.03,1.37-.65,2.73-1.33,4.11-1.97,.73-.34,1.45,.06,1.44,.79,0,.47-.3,.74-.71,.94-1.89,.91-3.78,1.84-5.68,2.73-.45,.21-.63,.46-.63,.98,.02,10.18,.01,20.37,.01,30.55,0,.22,.02,.43,.03,.72,.25-.11,.42-.18,.58-.26,8.69-4.19,17.38-8.39,26.07-12.57,.42-.2,.49-.45,.49-.86,0-10.22,0-20.45,0-30.67v-.66c-.17,.07-.27,.1-.36,.14-2.62,1.26-5.24,2.54-7.87,3.79-.35,.17-.41,.39-.41,.73,0,3.48,0,6.96,.01,10.43,0,.67-.26,1.08-.86,1.36-2.12,1-4.24,2.03-6.35,3.05-1.1,.53-1.68,.17-1.68-1.04,0-3.42-.01-6.83,.01-10.25,0-.5-.16-.74-.59-.94-2.85-1.36-5.7-2.74-8.54-4.11-6.2-2.99-12.39-5.99-18.6-8.97-.21-.1-.54-.16-.74-.07-2.97,1.41-5.92,2.84-9,4.32ZM24.27,5.64c.24,.13,.36,.21,.48,.27,8.67,4.18,17.33,8.37,26.01,12.53,.23,.11,.6,.07,.84-.05,2.26-1.06,4.5-2.15,6.74-3.24,.15-.07,.28-.16,.5-.28-1.15-.55-2.22-1.08-3.3-1.6-7.69-3.71-15.38-7.43-23.08-11.13-.21-.1-.54-.17-.73-.08-2.46,1.16-4.91,2.35-7.46,3.58Zm-7.61,3.72c.22,.12,.38,.21,.55,.29,8.46,4.09,16.93,8.16,25.38,12.27,.65,.32,1.15,.32,1.78-.01,1.47-.76,2.97-1.46,4.56-2.23-.31-.16-.52-.28-.74-.39-3.65-1.76-7.3-3.52-10.95-5.29-4.89-2.36-9.77-4.72-14.66-7.07-.2-.1-.51-.19-.69-.1-1.73,.81-3.44,1.65-5.22,2.52Zm27.83,24.32c.15-.05,.25-.08,.34-.12,1.46-.7,2.91-1.42,4.39-2.1,.37-.17,.39-.42,.39-.74,0-2.89,0-5.79,0-8.68,0-.16-.02-.31-.03-.54-.24,.11-.43,.18-.61,.27-1.31,.63-2.61,1.28-3.94,1.88-.42,.19-.57,.42-.57,.89,.02,2.83,.01,5.66,.01,8.49,0,.2,.02,.4,.03,.65Z"/><path d="M12.14,45.35c.01,.94-.68,1.36-1.42,1.02-1.19-.55-2.35-1.13-3.53-1.7-.22-.11-.46-.2-.67-.33-.48-.29-.63-.77-.4-1.22,.23-.46,.71-.67,1.21-.44,1.45,.67,2.89,1.36,4.31,2.09,.25,.13,.4,.47,.5,.59Z"/></g></svg>