<svg id="Layer_1" xmlns="http://www.w3.org/2000/svg" viewBox="0 0 22 22"><defs><style>.cls-1{fill:#50667A;}</style></defs><path class="cls-1" d="M19.46,4.87v-.67c0-.5-.11-1-.31-1.46-.21-.47-.51-.87-.89-1.2-.38-.34-.85-.58-1.33-.72-.5-.13-1.02-.15-1.5-.05L2.75,3.05c-.79,.16-1.49,.6-2,1.24C.27,4.91,0,5.69,0,6.48v11.42c0,1.87,1.48,3.39,3.31,3.39h15.38c1.82,0,3.31-1.52,3.31-3.39V8.16c0-1.6-1.08-2.93-2.53-3.29Zm-3.65-2.22c.19-.04,.38-.03,.57,.02,.19,.05,.37,.15,.53,.29,.16,.14,.3,.33,.4,.54,.1,.22,.15,.46,.15,.7v.56H4.08L15.82,2.65Zm4.18,15.25c0,.81-.59,1.48-1.31,1.48H3.31c-.72,0-1.31-.66-1.31-1.48V8.16c0-.81,.59-1.48,1.31-1.48h15.38c.72,0,1.31,.66,1.31,1.48v9.74Z"/><path class="cls-1" d="M16.38,14.51c-.3,0-.6-.09-.85-.26-.25-.17-.45-.41-.57-.69-.12-.28-.15-.59-.09-.89,.06-.3,.21-.57,.42-.79,.22-.22,.49-.36,.79-.42,.3-.06,.61-.03,.89,.09,.28,.12,.52,.31,.69,.57,.17,.25,.26,.55,.26,.85,0,.41-.16,.8-.45,1.09s-.68,.45-1.09,.45Z"/></svg>