<?xml version="1.0" encoding="UTF-8"?><svg id="Layer_1" xmlns="http://www.w3.org/2000/svg" width="64" height="64" viewBox="0 0 64 64"><g fill="#ffffff"><path d="M32.06,64C14.42,64.03-.03,49.58,0,31.93,.03,14.41,14.41,.03,31.94,0c17.66-.03,32.09,14.41,32.06,32.07-.03,17.52-14.41,31.91-31.94,31.93ZM4.22,32.02c0,15.34,12.52,27.8,27.87,27.76,15.23-.04,27.65-12.45,27.69-27.68,.04-15.37-12.39-27.87-27.74-27.89-15.35-.02-27.83,12.45-27.82,27.8Z"/><path d="M34.11,24.51c0,2.93,.17,5.87-.09,8.77-.09,1.02-1.15,2.65-1.96,2.78-1.79,.28-2.18-1.28-2.17-2.87,.03-5.76,.02-11.53,0-17.29,0-1.57,.31-3.03,2.17-2.99,1.87,.04,2.08,1.56,2.06,3.09-.03,2.84,0,5.68,0,8.51Z"/><path d="M36.22,44.85c-.03,2.28-1.99,4.2-4.26,4.18-2.28-.03-4.2-1.99-4.17-4.26,.03-2.29,1.97-4.2,4.26-4.17,2.28,.02,4.2,1.98,4.18,4.26Z"/></g></svg>