<svg id="Layer_1" xmlns="http://www.w3.org/2000/svg" viewBox="0 0 22 22"><defs><style>.cls-1{fill:#9A79F5;}</style></defs><path class="cls-1" d="M21.61,10.55c-.02-.87-.41-1.56-1.11-1.95-.32-.18-.4-.39-.45-.76-.33-2.49-1.74-4.76-3.88-6.22C14.03,.16,11.4-.34,8.95,.24,5.19,1.14,2.5,4.09,1.95,7.93c-.05,.31-.12,.5-.43,.67-.72,.39-1.12,1.08-1.13,1.94-.02,1.53-.02,3.08,0,4.61,.02,1.29,1.06,2.33,2.37,2.37,.75,.02,1.5,0,2.19,0,.67-.01,1.03-.38,1.03-1.04,0-2.42,0-4.84,0-7.26,0-.65-.37-1.02-1.04-1.03-.29,0-.58,0-.87,0h-.21c.29-2.67,2.84-6.16,7.11-6.16,.06,0,.11,0,.17,0,1.94,.04,4.02,1.03,5.43,2.57,1.03,1.13,1.58,2.39,1.56,3.58h-.91c-.88,0-1.21,.33-1.21,1.2v2.12c0,1.57,0,3.14,0,4.72,0,.49,.07,1,.61,1.25-.42,1.73-2.05,2.81-3.93,2.6v-.32c0-.78-.35-1.13-1.12-1.14-.9,0-1.8,0-2.7,0-.65,0-1.02,.37-1.04,1.03-.01,.44,0,.87,0,1.31,.02,.66,.38,1.03,1.04,1.03h.97c.54,0,1.08,.01,1.63,.01,.64,0,1.28,0,1.92-.02,2.39-.05,4.48-1.73,5.08-4.08l.1-.38c1.84-.25,3-1.41,3.05-3.06,.03-1.12,.03-2.33,0-3.91Z"/></svg>