<?xml version="1.0" encoding="UTF-8"?><svg id="Layer_1" xmlns="http://www.w3.org/2000/svg" width="64" height="64" viewBox="0 0 64 64"><g id="Layer_17" fill="#f87070"><path d="M49.07,64H14.93c-3.53,0-6.4-2.87-6.4-6.4V17.07c0-1.18,.96-2.13,2.13-2.13s2.13,.96,2.13,2.13V57.6c0,1.18,.96,2.13,2.13,2.13H49.07c1.18,0,2.13-.96,2.13-2.13V17.07c0-1.18,.96-2.13,2.13-2.13s2.13,.96,2.13,2.13V57.6c0,3.53-2.87,6.4-6.4,6.4Z"/><path d="M57.6,12.8H6.4c-1.18,0-2.13-.96-2.13-2.13s.96-2.13,2.13-2.13H57.6c1.18,0,2.13,.96,2.13,2.13s-.96,2.13-2.13,2.13Z"/><path d="M40.53,12.8c-1.18,0-2.13-.96-2.13-2.13V4.27h-12.8v6.4c0,1.18-.96,2.13-2.13,2.13s-2.13-.96-2.13-2.13V2.13c0-1.18,.96-2.13,2.13-2.13h17.07c1.18,0,2.13,.96,2.13,2.13V10.67c0,1.18-.96,2.13-2.13,2.13Z"/><path d="M32,53.33c-1.18,0-2.13-.96-2.13-2.13V21.33c0-1.18,.96-2.13,2.13-2.13s2.13,.96,2.13,2.13v29.87c0,1.18-.96,2.13-2.13,2.13Z"/><path d="M42.67,49.07c-1.18,0-2.13-.96-2.13-2.13V25.6c0-1.18,.96-2.13,2.13-2.13s2.13,.96,2.13,2.13v21.33c0,1.18-.96,2.13-2.13,2.13Z"/><path d="M21.33,49.07c-1.18,0-2.13-.96-2.13-2.13V25.6c0-1.18,.96-2.13,2.13-2.13s2.13,.96,2.13,2.13v21.33c0,1.18-.96,2.13-2.13,2.13Z"/></g></svg>