<svg viewBox="0 0 105 105" fill="none" xmlns="http://www.w3.org/2000/svg"><path d="M52.5 52.5C62.165 52.5 70 44.665 70 35C70 25.335 62.165 17.5 52.5 17.5C42.835 17.5 35 25.335 35 35C35 44.665 42.835 52.5 52.5 52.5Z" fill="#353737"/><path d="M87.5 83.125V87.5C87.5 88.6603 87.0391 89.7731 86.2186 90.5936C85.3981 91.4141 84.2853 91.875 83.125 91.875H21.875C20.7147 91.875 19.6019 91.4141 18.7814 90.5936C17.9609 89.7731 17.5 88.6603 17.5 87.5V83.125C17.5 76.1631 20.2656 69.4863 25.1884 64.5634C30.1113 59.6406 36.7881 56.875 43.75 56.875H61.25C68.2119 56.875 74.8887 59.6406 79.8116 64.5634C84.7344 69.4863 87.5 76.1631 87.5 83.125Z" fill="#353737"/></svg>
