<svg viewBox="0 0 24 24" fill="none" xmlns="http://www.w3.org/2000/svg"><path d="M8.7 9.69999L11 7.39999V15C11 15.6 11.4 16 12 16C12.6 16 13 15.6 13 15V7.39999L15.3 9.69999C15.5 9.89999 15.7 9.99999 16 9.99999C16.3 9.99999 16.5 9.89999 16.7 9.69999C17.1 9.29999 17.1 8.69999 16.7 8.29999L12.7 4.29999C12.6 4.19999 12.5 4.09999 12.4 4.09999C12.2 3.99999 11.9 3.99999 11.6 4.09999C11.5 4.19999 11.4 4.19999 11.3 4.29999L7.3 8.29999C6.9 8.69999 6.9 9.29999 7.3 9.69999C7.7 10.1 8.3 10.1 8.7 9.69999Z" fill="#F0F7FF"/><path d="M19 13C18.4 13 18 13.4 18 14V16C18 17.1 17.1 18 16 18H8C6.9 18 6 17.1 6 16V14C6 13.4 5.6 13 5 13C4.4 13 4 13.4 4 14V16C4 18.2 5.8 20 8 20H16C18.2 20 20 18.2 20 16V14C20 13.4 19.6 13 19 13Z" fill="#F0F7FF"/></svg>
